<?xml version="1.0" encoding="UTF-8"?>
<!DOCTYPE svg PUBLIC "-//W3C//DTD SVG 1.1//EN" "http://www.w3.org/Graphics/SVG/1.1/DTD/svg11.dtd">
<!-- Creator: CorelDRAW 2021 (64 Bit) -->
<svg xmlns="http://www.w3.org/2000/svg" xml:space="preserve" width="162.56mm" height="162.56mm" version="1.1" style="shape-rendering:geometricPrecision; text-rendering:geometricPrecision; image-rendering:optimizeQuality; fill-rule:evenodd; clip-rule:evenodd"
viewBox="0 0 16255.98 16255.99"
 xmlns:xlink="http://www.w3.org/1999/xlink">
 <defs>
  <style type="text/css">
    <!-- ADICIONADO "002" A TODOS OS FIL -->
    .str0002 {stroke:#E6AA37;stroke-width:7.62;stroke-miterlimit:22.9256}
    .fil13002 {fill:#303030}
    .fil9002 {fill:#5E5F61}
    .fil7002 {fill:#F9CA39}
    .fil3002 {fill:#F8C339}
    .fil4002 {fill:#F7C93C}
    .fil12002 {fill:#F5D93D}
    .fil14002 {fill:#EABE39}
    .fil1002 {fill:#E6AA37}
    .fil6002 {fill:#CA9F3C}
    .fil2002 {fill:#9C6736}
    .fil5002 {fill:#3D4B4E}
    .fil10002 {fill:#999999}
    .fil0002 {fill:#3d4b4e00}
    .fil8 {fill:#fdcd37}
    .fil11 {fill:#eabe39}

  </style>
  <!--<linearGradient id="id0" gradientUnits="userSpaceOnUse" x1="5035.03" y1="4359.42" x2="11545.62" y2="4359.42">
   <stop offset="0" style="stop-opacity:1; stop-color:#F8C339"/>
   <stop offset="0.34902" style="stop-opacity:1; stop-color:#F7CE3B"/>
   <stop offset="1" style="stop-opacity:1; stop-color:#F5D93D"/>
  </linearGradient>
  <linearGradient id="id1" gradientUnits="userSpaceOnUse" x1="3253.31" y1="5476.6" x2="10293.11" y2="5476.6">
   <stop offset="0" style="stop-opacity:1; stop-color:#EABE39"/>
   <stop offset="1" style="stop-opacity:1; stop-color:#F8C339"/>
  </linearGradient>-->
 </defs>
 <g id="Camada_x0020_1">
  <metadata id="CorelCorpID_0Corel-Layer"/>
  <rect class="fil0002" x="-0" width="16255.98" height="16255.99"/>
  <g id="_1775451387440">
   <polygon class="fil1002" points="5664.91,15308.61 6712.05,14703.92 6712.05,14596.18 5664.91,15200.87 "/>
   <polygon class="fil2002" points="4624.31,14599.99 5664.91,15200.87 5664.91,15308.61 4624.31,14707.81 "/>
   <polygon class="fil3002" points="5651.11,14007.17 6712.05,14596.18 5664.91,15200.87 4624.31,14599.99 "/>
   <path class="fil4002" d="M5401.5 9062.52c-2.03,2969.33 -2.26,4819.34 -0.69,5550.02 60.51,88.01 160.47,140.58 267.27,140.58 106.8,0 206.75,-52.57 267.26,-140.58 1.52,-653.41 1.52,-1128.06 0,-1423.96 0.87,-2319.97 1.24,-3651.64 1.1,-3995.02 -135.3,-92.61 -260.22,-178.12 -374.77,-256.52 -82.09,17.46 -135.48,59.29 -160.17,125.48z"/>
   <path class="fil4002 str0002" d="M5936.27 10438.96c1272.11,-735.77 2650.33,-1530.11 4134.65,-2383.01 89.54,7.45 167.98,62.89 204.88,144.81 36.9,81.91 26.43,177.41 -27.32,249.39 -1295.72,748.09 -2733.17,1578.01 -4312.37,2489.75 0.39,-152.56 0.44,-319.53 0.16,-500.94z"/>
   <path class="fil5002" d="M9336.92 10147.75c-33.32,-211.55 -133.75,-331.56 -301.3,-360.04 -369.09,11.35 -667.17,253.34 -894.22,725.98 -159.21,421.62 -152.8,714.95 19.2,879.98 243.69,181.48 540.84,65.69 891.45,-347.36 204,-266.21 298.95,-565.73 284.87,-898.56z"/>
   <path class="fil1002" d="M8754.76 11072.76c-136.06,105.13 -259.99,131.41 -371.82,78.85 -167.46,-127.85 -167.46,-356.3 0,-685.35 133,-225.09 285.22,-352.12 456.63,-381.1 227.2,17.21 313.05,160.19 257.54,428.94 -115.39,309.72 -229.51,495.94 -342.35,558.66z"/>
   <path class="fil6002" d="M7944.42 1093.97c54.55,-24.41 109.02,-45.77 163.43,-64.08 46.7,-15.09 92.11,-26.83 136.18,-35.19l-30.53 3.44c176.63,-46.7 352.58,-61.18 527.85,-43.42 637.83,26.87 1248.83,264.06 1737.72,674.59 519.43,423.24 889.15,963.13 1109.15,1619.67 191.13,531.34 176.93,1122.07 -42.6,1772.17 -179.74,344.29 -406.75,607.25 -680.95,789.01 -277.29,180.45 -606.39,281.35 -987.34,302.66 -609.45,-34.58 -1134.31,-189.8 -1574.66,-465.58 -55.15,-37.7 -113.01,-68.95 -164.06,-111.19 -102.06,-78.75 -202.55,-159.55 -292.06,-246.41 -45.54,-44.19 -88.91,-90.12 -131.14,-135.53 -33.22,-35.72 -63.78,-72.58 -94.43,-109.32 -924.92,-1154.34 -1306.61,-2721.65 -24.66,-3751.33 122.42,-82.89 238.46,-149.39 348.1,-199.49z"/>
   <path class="fil7002" d="M7129.6 2265.49c201.27,-491.65 507.25,-812.82 917.92,-963.53 442.15,-163 927.92,-163 1370.06,0 384.32,123.43 737.84,327.53 1036.89,598.65 373.51,355.08 641.81,725.54 804.93,1111.38 177.18,412.17 255.47,811.08 234.83,1196.74 -29.13,503.03 -197.26,907.73 -504.37,1214.09 -354.53,354.22 -834.78,504.67 -1440.76,451.36 -475.63,-48.59 -952.91,-266.95 -1431.86,-655.07 -515.83,-475.95 -847.82,-977.46 -995.97,-1504.53 -147.56,-496.67 -144.78,-979.71 8.33,-1449.09z"/>
   <path class="fil8" d="M10938.21 6630.3c267.16,-584.72 469.62,-1121.1 607.4,-1609.15 -63.16,124.71 -136.22,237.8 -213.24,341.22 -346.06,464.63 -829.11,715.44 -1455.05,750.45 -963.25,-54.65 -1715.52,-410.85 -2256.35,-1068.03 -895.64,-1117.62 -1297.79,-2646.45 -98.96,-3699.56 270.62,-193.73 511.3,-310.57 722.01,-350.53 -449.22,50.48 -882.48,105.02 -1299.79,163.61 -221.47,33.86 -490.5,140.85 -807.1,320.95 -1001.67,658.3 -1320.55,1755.44 -956.63,3291.4 656.99,1770.17 1864.06,2754.67 3621.23,2953.5 600.09,-3.57 1097.55,-140.9 1492.39,-411.98 309.68,-244.5 524.37,-471.8 644.09,-681.88z"/>
   <path class="fil9002" d="M8204.5 5287.96c-501.92,-416.82 -849.74,-904.11 -1043.47,-1461.87 1297.84,107.5 2452.92,865.01 3068.73,2012.51 -676.48,145.35 -1351.57,-38.19 -2025.26,-550.64z"/>
   <polygon class="fil10002" points="11301.85,5761.33 10516.13,7125.21 10516.13,7832.9 11519.81,8412.16 11519.5,5886.86 "/>
   <polygon class="fil10002" points="12515.49,5322.22 11519.5,5886.86 11519.81,8412.16 13006.06,7554.15 13006.06,5957.06 "/>
   <polygon class="fil10002" points="11301.85,5761.33 11612.74,4800.91 12515.49,5322.22 11519.81,5886.86 "/>
   <path class="fil11" d="M5201.77 2628.89c207.14,-366.31 361.85,-660.43 550.36,-857.43 -675.52,551.54 -1243.9,1017.63 -1705.15,1398.26 -790.64,696.86 -990.57,1764.45 -599.78,3202.74 481.05,1354.81 1604.38,2381.68 2996.83,2739.46 478.5,74.56 821.82,89.39 1029.95,44.5 336.2,-53.96 610.7,-143.99 823.51,-270.08 216.18,-116.22 449.81,-287.61 700.91,-514.16 490.21,-397 921.79,-753.65 1294.72,-1069.96 -293.09,208.82 -641.76,338.38 -1046.06,392.28 -94.08,12.55 -191.32,21.03 -291.44,25.71 -35.65,1.66 -71.62,2.86 -108.01,3.41 -7.25,0.11 -14.56,0.28 -21.84,0.32 -3.62,0.02 -7.27,0.1 -10.92,0.12 -39.9,-2.06 -78.7,-7.6 -117.25,-12.69 -59.16,-7.83 -117.43,-16.33 -175.36,-26.24 -157.35,-26.9 -311.58,-60.1 -466.98,-101.54 -769.03,-205.12 -1471.51,-640.58 -2074.44,-1346.85 -224.63,-309.74 -426.89,-629.03 -591.53,-968.75 -77.76,-160.46 -56.2,-122.44 -208.78,-497.33 -136.75,-703.85 -181.75,-1399.03 21.26,-2141.77z"/>
   <path class="fil4002" d="M9979.46 8104.56c0,-214.61 0,-394.06 0,-538.35 18.37,-14.53 35.46,-29.65 53.12,-44.44 54.28,-45.45 106.81,-91.19 159.92,-134.44 13.5,-10.99 26.48,-22.92 39.94,-33.73 1.09,-0.88 2.15,-1.87 3.24,-2.74 96.87,-77.78 192.83,-150.48 280.45,-225.65 0,407.86 0,797.9 0,1170.12 -32.16,103.67 -121.38,155.28 -267.66,154.83 -179.34,-230.4 -269.01,-345.6 -269.01,-345.6z"/>
   <path class="fil4002" d="M12038.84 12936.9c-882.8,-2115.43 -1495.37,-3583.28 -1837.69,-4403.55 18.39,-28.83 34.17,-56.56 47.32,-83.2 112.31,3.2 193.13,-30.53 242.44,-101.18 1044.97,2503.92 1640.32,3930.49 1786.06,4279.72 -97.64,99.28 -177.01,202.02 -238.13,308.21z"/>
   <path class="fil4002" d="M8585.95 10777.38c1041.45,600.89 2161.77,1247.29 3360.95,1939.19 -78.35,-187.75 -145.65,-349 -201.88,-483.74 -1275.8,-735.99 -2261.63,-1304.71 -2957.48,-1706.14 -78.29,76.34 -145.49,159.91 -201.59,250.69z"/>
   <path class="fil5002" d="M13407.46 13778.9c-338.32,517.08 -667.89,682.48 -988.73,496.17 -151.48,-101.15 -291.62,-194.67 -420.4,-280.54 -140.17,-103.4 -184.13,-313.63 -131.87,-630.69 50.04,-184.07 107.49,-326.38 172.38,-426.94 66.27,-112.84 145.65,-215.58 238.13,-308.21 220.44,-208.77 423.38,-292.4 608.83,-250.89 237.46,128.64 390.35,255.85 521.94,329.96 252.86,165.43 252.76,522.48 -0.28,1071.14z"/>
   <path class="fil1002" d="M12864.05 13075.67c133.09,-108.28 259.29,-136.35 378.62,-84.21 177.46,157.94 168.33,404.13 -27.39,738.57 -204.08,267.13 -386.83,372.21 -548.27,315.25 -166.4,-67.69 -189.7,-275.25 -69.9,-622.67 77.86,-155.24 166.85,-270.89 266.94,-346.94z"/>
   <path class="fil1002" d="M12574.49 13544.78c66.76,-202.43 172.62,-352.14 317.57,-449.14 257.49,-126.97 386.75,-47.98 387.79,236.95 -18.03,174.72 -95.45,336.29 -232.29,484.69 -136.79,139.16 -266.94,182.97 -390.45,131.44 -105.56,-68.07 -133.1,-202.72 -82.62,-403.94z"/>
   <path class="fil5002" d="M7740.53 11113.29c148.69,99.22 288.72,192.68 420.08,280.38 -172.01,-165.06 -178.41,-458.38 -19.2,-879.98 227.33,-472.09 524.69,-714.19 892.1,-726.29 8.93,-13.37 14.97,-22.43 18.14,-27.19 -121.87,-82.33 -238.32,-160.48 -349.33,-234.45 -71.33,-40.57 -160.12,-50.28 -266.36,-29.15 -130.8,75.53 -267.08,154.22 -408.86,236.07 -211.8,198.19 -357.8,485.49 -438.02,861.91 -25.96,239.83 24.52,412.73 151.45,518.7z"/>
   <path class="fil12002" d="M3049.56 6051.09c288.14,-401.07 775.74,-493.73 1462.81,-277.96 935.49,416.53 1647.3,1210.69 2135.44,2382.49 386.74,859.61 367.48,1681.16 -57.78,2464.66 -464.47,518.32 -1086.76,561.95 -1866.87,130.91 -925.6,-639.11 -1542.81,-1438.79 -1851.62,-2399.06 -334.21,-971.53 -274.87,-1738.54 178.02,-2301.04z"/>
   <path class="fil13002" d="M3510.2 9081.71c-339.5,-662.55 -520.04,-1173.53 -541.62,-1532.96 -59.98,-1315.53 415.47,-1821.71 1426.35,-1518.56 1391.01,757.38 2139.49,1937.3 2245.4,3539.77 -103.81,1136.05 -695.79,1448.32 -1775.93,936.83 -660.86,-466.7 -1112.27,-941.73 -1354.2,-1425.08z"/>
   <path class="fil1002" d="M7018.56 9817.89c-21.44,234.84 -164.28,502.3 -428.53,802.38 425.8,-811.19 445.06,-1632.75 57.78,-2464.66 -402.84,-1074.42 -1114.66,-1868.59 -2135.44,-2382.49 -595.79,-196.89 -1051.49,-130.62 -1373.02,169.63 298.01,-365.08 713.79,-506.67 1253.28,-395.6 867.69,245.41 1598.37,917.07 2192.05,2014.97 391.45,724.72 536.07,1476.65 433.88,2255.77z"/>
   <path class="fil1002" d="M2981.13 7638.88c-3.19,-31.11 -10.02,-59.88 -12.55,-90.12 -60.17,-716.55 66.86,-1192.77 373.19,-1424.81 -339.05,500.47 -342.73,1216.69 -11.02,2148.67 299.35,834.76 856.79,1531.06 1672.33,2088.9 477.1,291.42 922.34,331 1335.72,118.73 -293.78,343.66 -785.24,352.51 -1474.4,26.55 -352.49,-236.03 -670.56,-510.26 -939.38,-821.44 -54.81,-63.46 -109.53,-128.64 -158.93,-195.07 -44.87,-60.33 -84.73,-121.67 -128.5,-184.73 -13.23,-22.88 -28.3,-45.53 -42.13,-68.29 -15.76,-25.95 -30.26,-52.02 -44.4,-77.61 -283.28,-513.02 -470.31,-978.31 -553.67,-1393.19 -8.75,-43.59 -9.63,-85.07 -16.26,-127.59z"/>
   <path class="fil1002" d="M3949.86 7758.32c-287.34,-83.72 -563.99,-183.56 -829.94,-299.49 -50.44,29.97 -100.9,59.96 -151.34,89.93 239.52,109.6 513.81,212.31 822.88,308.11 306.71,95.58 641.92,171.23 1005.65,226.93 212.79,29.79 426.37,182.61 640.77,458.47 300.7,310.44 701.52,653.01 1202.45,1027.7 -5.44,-79.45 -0.44,-134.92 -6.77,-194.43 -251.41,-219.33 -507.93,-463.53 -747.81,-704.56 -190.91,-203.1 -353.47,-372.95 -487.7,-509.55 -124.59,-103.78 -295.18,-166.22 -511.77,-187.31 -476.22,-93.92 -788.35,-165.85 -936.42,-215.8z"/>
   <path class="fil12002" d="M2997.39 7766.47c-15.3,-69.25 -27.54,-143.51 -28.59,-218.09 235.23,107.62 512.16,212.01 822.66,308.49 329.68,100.09 653.59,173.81 971.73,221.18 144.95,9 299.98,84.1 458.98,227.94 45.23,40.92 90.85,87.49 136.33,139.72 26.39,30.32 52.07,62.79 79.38,96.56 236.41,237.75 466.84,447.3 691.28,628.64 157.65,130.16 328.05,263.18 511.17,399.06 -3.17,34.56 -2.59,68.07 -6.56,100.53 -4.02,32.87 -12.61,64.68 -17.45,95.41 -227.47,-155.7 -455.82,-312.01 -685.06,-468.92 -282.77,-193.56 -564.83,-386.63 -846.17,-579.2 -64.32,-47.94 -266.45,-143.45 -606.4,-286.52 -307.98,-138.22 -664.63,-298.28 -1069.97,-480.2 -107.9,-48.42 -245.01,-109.96 -411.33,-184.6z"/>
   <path class="fil14002" d="M4886.28 7974.12c-211.8,-36.55 -410.96,-84.31 -648.44,-137.49 -485.74,-664.57 -781.37,-1256.47 -868.11,-1743.18 255.62,-188.06 613.78,-224.79 1025.2,-63.25 250.27,98.27 504.75,284.71 812.68,512.37 833.65,757.08 1308.97,1701.4 1425.95,2832.97 -291.26,-250.56 -569.18,-515.81 -833.75,-795.77 -132.06,-131.95 -258.6,-263.87 -379.61,-395.76 -128.18,-103.11 -264.71,-164.87 -409.32,-192.24 -28.71,-5.43 -57.83,-10.06 -87.14,-13.53 -8.24,-0.98 -16.47,-1.95 -24.73,-2.83 -4.22,-0.45 -8.54,-0.88 -12.73,-1.29z"/>
   <path class="fil4002" d="M5401.5 9209.09c-0.25,332.06 -2.26,642.8 -0.69,1339.35 50.11,30.59 190.26,54.13 315.69,63.05 98.79,7.03 188.28,4.11 218.84,-5.33 1.02,-418.05 1.11,-1275.71 1.1,-1305.63 -131.3,-89.88 -249.64,-175.82 -364.19,-250.57 -82.08,16.65 -146.06,96.02 -170.75,159.13z"/>
   <path class="fil4002" d="M8585.95 10777.38c852.13,-1186.2 1390.53,-1934.21 1615.2,-2244.03 17.28,-26.88 33.05,-54.61 47.32,-83.2 -194.83,112.48 -373.07,215.39 -534.73,308.73 -295.22,452.14 -693.66,1051.19 -1195.31,1797.14 -42.54,74.88 -44.31,134.65 -5.32,179.34 29.67,17.12 53.95,31.12 72.84,42.02z"/>
  </g>
 </g>
</svg>
