<?xml version="1.0" encoding="utf-8"?>
<!-- Generator: Adobe Illustrator 23.0.0, SVG Export Plug-In . SVG Version: 6.00 Build 0)  -->
<svg version="1.1" id="Camada_1" fill="#ffffff" width="22" height="22" focusable="false" xmlns="http://www.w3.org/2000/svg" xmlns:xlink="http://www.w3.org/1999/xlink"
	 x="0px" y="0px" viewBox="0 0 448 512" style="enable-background:new 0 0 448 512;" xml:space="preserve">
<path d="M400,32H48C21.5,32,0,53.5,0,80v352c0,26.5,21.5,48,48,48h352c26.5,0,48-21.5,48-48V80C448,53.5,426.5,32,400,32z M160,368
	c0,8.8-7.2,16-16,16h-32c-8.8,0-16-7.2-16-16V240c0-8.8,7.2-16,16-16h32c8.8,0,16,7.2,16,16V368z M256,368c0,8.8-7.2,16-16,16h-32
	c-8.8,0-16-7.2-16-16V144c0-8.8,7.2-16,16-16h32c8.8,0,16,7.2,16,16V368z M352,368c0,8.8-7.2,16-16,16h-32c-8.8,0-16-7.2-16-16v-64
	c0-8.8,7.2-16,16-16h32c8.8,0,16,7.2,16,16V368z"/>
</svg>
