<svg xmlns="http://www.w3.org/2000/svg" xmlns:xlink="http://www.w3.org/1999/xlink" viewBox="0 0 645.47 87.71">
	<defs>
		<style>
			.cls-white-1{fill:#fff;}.cls-white-2{fill:url(#Gradiente_sem_nome_8);}.cls-white-3{fill:url(#Gradiente_sem_nome_8-2);}.cls-white-4{fill:url(#Gradiente_sem_nome_8-3);}
		</style>
		<linearGradient id="Gradiente_sem_nome_8" x1="42.04" y1="37.6" x2="96.21" y2="-16.57" gradientUnits="userSpaceOnUse">
			<stop offset="0" stop-color="#ffef26" />
			<stop offset="0.18" stop-color="#f8c02d" />
			<stop offset="0.39" stop-color="#f18f34" />
			<stop offset="0.8" stop-color="#e95f32" />
			<stop offset="1" stop-color="#e3312d" />
		</linearGradient>
		<linearGradient id="Gradiente_sem_nome_8-2" x1="37.1" y1="65.27" x2="81.33" y2="21.03" xlink:href="#Gradiente_sem_nome_8" />
		<linearGradient id="Gradiente_sem_nome_8-3" x1="26.46" y1="87.26" x2="49.42" y2="64.3" xlink:href="#Gradiente_sem_nome_8" />
	</defs>
	<title>
		FASTENG-WHITE
	</title>
	<g id="Camada_2" data-name="Camada 2">
		<g id="Camada_1-2" data-name="Camada 1">
			<path class="cls-white-1" d="M193.67,18.61H151.42l-4.24,18h34.67l-4,17.08H143.33l-7.58,32.62H113.66L133.31,1.53h64.34Z" />
			<path class="cls-white-1" d="M234.64,86.29h20.93l-9.5-84.76H219.35l-49,84.76h23l10.84-19.9h28.94ZM212.29,51.36l10.28-18.88,6.8-14h.26l.77,14.26,1.47,18.62Z" />
			<path class="cls-white-1" d="M302.58,87.71a59.16,59.16,0,0,1-17-2.38,46.93,46.93,0,0,1-14.32-7,42.54,42.54,0,0,1-10.85-11.69l13-12.71a32.28,32.28,0,0,0,7.77,9.18,32.8,32.8,0,0,0,10.21,5.65,34.15,34.15,0,0,0,11.05,1.87,15.56,15.56,0,0,0,6.48-1.16,8.92,8.92,0,0,0,3.79-3.08A7.28,7.28,0,0,0,314,62.28,5.32,5.32,0,0,0,312,57.85,19.59,19.59,0,0,0,305.79,55l-12.72-4.11a43.56,43.56,0,0,1-10.46-5.07A23.62,23.62,0,0,1,275.22,38a20.72,20.72,0,0,1-2.7-10.65A24.12,24.12,0,0,1,277,12.7a28,28,0,0,1,12.2-9.24A46.27,46.27,0,0,1,306.94.25q13.23,0,22.35,4.68a40.78,40.78,0,0,1,15,13.17L330.83,30.43A25.92,25.92,0,0,0,324.34,23a26.8,26.8,0,0,0-8.28-4.3,30.34,30.34,0,0,0-9.12-1.41,17.27,17.27,0,0,0-6.42,1,8.12,8.12,0,0,0-3.79,2.76,6.85,6.85,0,0,0-1.22,4A6.1,6.1,0,0,0,298,29.85a18.75,18.75,0,0,0,6.61,3.4l12.72,4.11Q327,40.45,332,45.78t5,13.93a25,25,0,0,1-4.55,15A29.06,29.06,0,0,1,320,84.37,44.19,44.19,0,0,1,302.58,87.71Z" />
			<path class="cls-white-1" d="M427,1.53l-4,17.08H395.69L380,86.29H357.93L373.6,18.61H346l4-17.08Z" />
			<path class="cls-white-1" d="M428.56,86.29V1.53H488v9.63H438.84V38.52h38.27v9.63H438.84V76.66H490v9.63Z" />
			<path class="cls-white-1" d="M562.9,1.53V86.29H550.18L514.74,29.53l-9-15.93h-.13l.51,12.85V86.29h-9.76V1.53h12.72L544.4,58l9.12,16.31h.13l-.51-13V1.53Z" />
			<path class="cls-white-1" d="M610.67,87.58q-12.07,0-20.87-5.33a35.58,35.58,0,0,1-13.61-15.09q-4.82-9.76-4.82-23.25t5.07-23.24a36.63,36.63,0,0,1,14.2-15.09A40.7,40.7,0,0,1,611.57.25Q624.16.25,632.05,5t12.78,14.64l-9.37,5.14a21.9,21.9,0,0,0-8.93-11.11q-6.1-3.79-15-3.79a28.55,28.55,0,0,0-15.22,4A27.65,27.65,0,0,0,586,25.61q-3.8,7.65-3.79,18.3a46.33,46.33,0,0,0,3.27,18.3,24.94,24.94,0,0,0,9.76,11.69q6.49,4,15.87,4a34.43,34.43,0,0,0,9.82-1.35,23.3,23.3,0,0,0,8-4,18.56,18.56,0,0,0,5.33-6.8,22.41,22.41,0,0,0,1.93-9.64v-3h-27V43.53h36.34V86.29h-8.09l-.51-15.79,2.18.38a25.55,25.55,0,0,1-10.53,12.33Q621.34,87.58,610.67,87.58Z" />
			<path class="cls-white-1" d="M19.32,10.51h0A10.51,10.51,0,0,1,29.83,0H10.51A10.54,10.54,0,0,0,0,10.51H0A10.54,10.54,0,0,0,10.51,21H29.83A10.51,10.51,0,0,1,19.32,10.51Z" />
			<path class="cls-white-1" d="M19.32,43.15h0A10.54,10.54,0,0,1,29.83,32.63H10.51A10.54,10.54,0,0,0,0,43.15H0A10.54,10.54,0,0,0,10.51,53.66H29.83A10.54,10.54,0,0,1,19.32,43.15Z" />
			<path class="cls-white-1" d="M19.32,75.78h0A10.54,10.54,0,0,1,29.83,65.27H10.51A10.54,10.54,0,0,0,0,75.78H0A10.54,10.54,0,0,0,10.51,86.29H29.83A10.54,10.54,0,0,1,19.32,75.78Z" />
			<rect class="cls-white-2" x="19.32" width="99.62" height="21.03" rx="10.51" />
			<rect class="cls-white-3" x="19.32" y="32.63" width="79.8" height="21.03" rx="10.51" />
			<rect class="cls-white-4" x="19.32" y="65.27" width="37.25" height="21.02" rx="10.51" />
		</g>
	</g>
</svg>
