<?xml version="1.0" encoding="utf-8"?>
<!-- Generator: Adobe Illustrator 23.0.0, SVG Export Plug-In . SVG Version: 6.00 Build 0) -->
<svg version="1.1" id="Camada_1" fill="#ffffff" width="22" height="22" focusable="false" xmlns="http://www.w3.org/2000/svg" xmlns:xlink="http://www.w3.org/1999/xlink" x="0px" y="0px" viewBox="0 0 448 512" style="enable-background:new 0 0 448 512;" xml:space="preserve">
	<path d="M422.2,110L256.2,9.1C236.3-3,211.7-3,191.8,9.1L25.8,110c-5.3,3.2-5.3,11.3,0.1,14.5L224,242.6l198.1-118.1
	C427.5,121.2,427.5,113.2,422.2,110z M436,154.6L240,271.5v223.8c0,12.9,13.4,20.9,24,14.4l152.2-92.5c19.7-12,31.8-33.9,31.8-57.7
	V161.8C448,155.4,441.4,151.4,436,154.6L436,154.6z M0,161.8v197.7c0,23.8,12.1,45.7,31.8,57.7L184,509.7
	c10.7,6.5,24.1-1.5,24.1-14.4V271.5L12,154.6C6.6,151.4,0,155.4,0,161.8z" />
</svg>
